<svg width="24" height="24" viewBox="0 0 24 24" fill="none" xmlns="http://www.w3.org/2000/svg">
<path d="M15.3 5.54999C14.54 5.54987 13.8103 5.84811 13.2679 6.38056C12.7256 6.91301 12.4139 7.63709 12.4 8.39699L12.372 9.97199C12.3704 10.0566 12.3509 10.1398 12.3148 10.2163C12.2787 10.2928 12.2269 10.3608 12.1627 10.4159C12.0985 10.4709 12.0233 10.5118 11.9422 10.5358C11.8611 10.5597 11.7758 10.5663 11.692 10.555L10.131 10.343C8.07702 10.063 6.10902 9.11699 4.22102 7.54399C3.62302 10.854 4.79102 13.147 7.60402 14.916L9.35102 16.014C9.43403 16.0662 9.50299 16.1379 9.55187 16.2228C9.60075 16.3078 9.62806 16.4035 9.63142 16.5015C9.63477 16.5995 9.61407 16.6968 9.57111 16.7849C9.52816 16.873 9.46426 16.9493 9.38502 17.007L7.79302 18.17C8.74002 18.229 9.63902 18.187 10.385 18.039C15.103 17.097 18.24 13.547 18.24 7.69099C18.24 7.21299 17.228 5.54999 15.3 5.54999ZM10.4 8.35999C10.4175 7.39604 10.7189 6.45866 11.2666 5.66521C11.8143 4.87177 12.5838 4.25751 13.4789 3.89936C14.3741 3.54121 15.3549 3.45507 16.2988 3.65174C17.2426 3.84841 18.1074 4.31914 18.785 5.00499C19.496 4.99999 20.101 5.17999 21.454 4.35999C21.119 5.99999 20.954 6.71199 20.24 7.69099C20.24 15.333 15.543 19.049 10.777 20C7.50902 20.652 2.75702 19.581 1.39502 18.159C2.08902 18.105 4.90902 17.802 6.53902 16.609C5.16002 15.7 -0.328981 12.47 3.27802 3.78599C4.97102 5.76299 6.68802 7.10899 8.42802 7.82299C9.58602 8.29799 9.87002 8.28799 10.401 8.36099L10.4 8.35999Z" fill="currentColor"/>
</svg>
